<mxfile host="Electron" modified="2023-05-04T16:06:50.161Z" agent="Mozilla/5.0 (Windows NT 10.0; Win64; x64) AppleWebKit/537.36 (KHTML, like Gecko) draw.io/21.2.1 Chrome/112.0.5615.87 Electron/24.1.2 Safari/537.36" etag="2CJuQK9RYxHlpIoHTBcE" version="21.2.1" type="device">
  <diagram name="第 1 页" id="tqHv6gNXIxX08ADT5tFh">
    <mxGraphModel dx="898" dy="579" grid="1" gridSize="10" guides="1" tooltips="1" connect="1" arrows="1" fold="1" page="1" pageScale="1" pageWidth="827" pageHeight="1169" math="0" shadow="0">
      <root>
        <mxCell id="0" />
        <mxCell id="1" parent="0" />
        <mxCell id="c7tfhzFwUYpsYpKX5peI-1" value="" style="rounded=0;whiteSpace=wrap;html=1;strokeColor=default;shadow=1;sketch=1;curveFitting=1;jiggle=2;fillColor=#f8cecc;" parent="1" vertex="1">
          <mxGeometry x="240" y="121" width="600" height="360" as="geometry" />
        </mxCell>
        <mxCell id="sr66KoZ8V5CJiIYRb_Yh-8" style="edgeStyle=orthogonalEdgeStyle;rounded=0;orthogonalLoop=1;jettySize=auto;html=1;exitX=0.5;exitY=1;exitDx=0;exitDy=0;entryX=0.644;entryY=-0.018;entryDx=0;entryDy=0;entryPerimeter=0;strokeWidth=3;strokeColor=#FF5A26;shadow=0;sketch=1;curveFitting=1;jiggle=2;" parent="1" source="sr66KoZ8V5CJiIYRb_Yh-2" target="c7tfhzFwUYpsYpKX5peI-3" edge="1">
          <mxGeometry relative="1" as="geometry" />
        </mxCell>
        <mxCell id="sr66KoZ8V5CJiIYRb_Yh-2" value="" style="rounded=0;whiteSpace=wrap;html=1;fillColor=#d5e8d4;strokeColor=#000000;sketch=1;curveFitting=1;jiggle=2;shadow=1;" parent="1" vertex="1">
          <mxGeometry x="440" y="180" width="340" height="170" as="geometry" />
        </mxCell>
        <mxCell id="c7tfhzFwUYpsYpKX5peI-2" value="&lt;font style=&quot;font-size: 18px;&quot;&gt;&lt;b&gt;Node.js 运行环境&lt;/b&gt;&lt;/font&gt;" style="text;html=1;strokeColor=none;fillColor=none;align=center;verticalAlign=middle;whiteSpace=wrap;rounded=0;" parent="1" vertex="1">
          <mxGeometry x="250" y="130" width="210" height="30" as="geometry" />
        </mxCell>
        <mxCell id="c7tfhzFwUYpsYpKX5peI-3" value="&lt;b&gt;&lt;font style=&quot;font-size: 18px;&quot;&gt;待执行的JavaScript代码&lt;/font&gt;&lt;/b&gt;" style="rounded=0;whiteSpace=wrap;html=1;sketch=1;curveFitting=1;jiggle=2;strokeColor=default;fillColor=#918881;shadow=1;align=center;" parent="1" vertex="1">
          <mxGeometry x="305" y="390" width="475" height="40" as="geometry" />
        </mxCell>
        <mxCell id="c7tfhzFwUYpsYpKX5peI-4" value="&lt;b&gt;&lt;font style=&quot;font-size: 18px;&quot;&gt;V8引擎&lt;/font&gt;&lt;/b&gt;" style="rounded=0;whiteSpace=wrap;html=1;sketch=1;curveFitting=1;jiggle=2;strokeColor=#0000CC;fillColor=#7EA6E0;shadow=1;dashed=1;dashPattern=8 8;" parent="1" vertex="1">
          <mxGeometry x="305" y="180" width="100" height="170" as="geometry" />
        </mxCell>
        <mxCell id="igsXjAd4R2TSyEFnvB47-1" value="&lt;b&gt;&lt;font style=&quot;font-size: 16px;&quot;&gt;fs&lt;/font&gt;&lt;/b&gt;" style="rounded=0;whiteSpace=wrap;html=1;sketch=1;curveFitting=1;jiggle=2;strokeColor=default;fillColor=#0083A0;shadow=1;align=center;" parent="1" vertex="1">
          <mxGeometry x="467" y="220" width="76" height="40" as="geometry" />
        </mxCell>
        <mxCell id="igsXjAd4R2TSyEFnvB47-2" value="&lt;b&gt;&lt;font style=&quot;font-size: 16px;&quot;&gt;path&lt;/font&gt;&lt;/b&gt;" style="rounded=0;whiteSpace=wrap;html=1;sketch=1;curveFitting=1;jiggle=2;strokeColor=default;fillColor=#0083A0;shadow=1;align=center;" parent="1" vertex="1">
          <mxGeometry x="572" y="220" width="76" height="40" as="geometry" />
        </mxCell>
        <mxCell id="igsXjAd4R2TSyEFnvB47-3" value="&lt;b&gt;&lt;font style=&quot;font-size: 16px;&quot;&gt;http&lt;/font&gt;&lt;/b&gt;" style="rounded=0;whiteSpace=wrap;html=1;sketch=1;curveFitting=1;jiggle=2;strokeColor=default;fillColor=#0083A0;shadow=1;align=center;" parent="1" vertex="1">
          <mxGeometry x="677" y="220" width="76" height="40" as="geometry" />
        </mxCell>
        <mxCell id="sr66KoZ8V5CJiIYRb_Yh-3" value="&lt;span style=&quot;font-size: 16px;&quot;&gt;&lt;b&gt;JS内置&lt;br&gt;对象&lt;/b&gt;&lt;/span&gt;" style="rounded=0;whiteSpace=wrap;html=1;sketch=1;curveFitting=1;jiggle=2;strokeColor=default;fillColor=#0083A0;shadow=1;align=center;" parent="1" vertex="1">
          <mxGeometry x="467" y="281" width="76" height="40" as="geometry" />
        </mxCell>
        <mxCell id="sr66KoZ8V5CJiIYRb_Yh-4" value="&lt;span style=&quot;font-size: 16px;&quot;&gt;&lt;b&gt;query&lt;br&gt;string&lt;/b&gt;&lt;/span&gt;" style="rounded=0;whiteSpace=wrap;html=1;sketch=1;curveFitting=1;jiggle=2;strokeColor=default;fillColor=#0083A0;shadow=1;align=center;" parent="1" vertex="1">
          <mxGeometry x="572" y="281" width="76" height="40" as="geometry" />
        </mxCell>
        <mxCell id="sr66KoZ8V5CJiIYRb_Yh-5" value="&lt;b&gt;&lt;font style=&quot;font-size: 16px;&quot;&gt;etc...&lt;/font&gt;&lt;/b&gt;" style="rounded=0;whiteSpace=wrap;html=1;sketch=1;curveFitting=1;jiggle=2;strokeColor=default;fillColor=#0083A0;shadow=1;align=center;" parent="1" vertex="1">
          <mxGeometry x="677" y="281" width="76" height="40" as="geometry" />
        </mxCell>
        <mxCell id="sr66KoZ8V5CJiIYRb_Yh-6" value="&lt;b&gt;&lt;font style=&quot;font-size: 18px;&quot;&gt;内置API&lt;/font&gt;&lt;/b&gt;" style="text;html=1;strokeColor=none;fillColor=none;align=center;verticalAlign=middle;whiteSpace=wrap;rounded=0;" parent="1" vertex="1">
          <mxGeometry x="431" y="187" width="111" height="25" as="geometry" />
        </mxCell>
        <mxCell id="sr66KoZ8V5CJiIYRb_Yh-7" value="" style="endArrow=classic;html=1;rounded=0;entryX=0.5;entryY=1;entryDx=0;entryDy=0;strokeWidth=3;strokeColor=#0000CC;shadow=0;sketch=1;curveFitting=1;jiggle=2;" parent="1" target="c7tfhzFwUYpsYpKX5peI-4" edge="1">
          <mxGeometry width="50" height="50" relative="1" as="geometry">
            <mxPoint x="355" y="390" as="sourcePoint" />
            <mxPoint x="600" y="260" as="targetPoint" />
          </mxGeometry>
        </mxCell>
      </root>
    </mxGraphModel>
  </diagram>
</mxfile>
